<?xml version="1.0" encoding="utf-8"?>
<!-- Generator: Adobe Illustrator 23.0.3, SVG Export Plug-In . SVG Version: 6.00 Build 0)  -->
<svg version="1.1" id="Layer_1" xmlns="http://www.w3.org/2000/svg" xmlns:xlink="http://www.w3.org/1999/xlink" x="0px" y="0px"
	 viewBox="0 0 1200 416" style="enable-background:new 0 0 1200 416;" xml:space="preserve">
<style type="text/css">
	.st0{fill:#FFFFFF;}
</style>
<g>
	<path class="st0" d="M8.3,14.2h88.8V140c7-1.4,13.9-2.4,20.6-2.9c6.7-0.5,12.9-0.8,18.5-0.8c19,0,36.3,2.4,51.8,7.1
		c15.5,4.8,28.7,12.2,39.6,22.5c10.9,10.2,19.4,23.6,25.4,40.2c6,16.6,9,36.7,9,60.3c0,26.4-3.3,48.6-9.8,66.6
		c-6.5,18-15.5,32.3-27,43.1c-11.5,10.8-25,18.5-40.7,23.3c-15.7,4.8-32.9,7.1-51.5,7.1c-8.5,0-18.3-0.4-29.6-1.3
		c-11.3-0.9-22.7-2.1-34.4-3.7s-22.8-3.3-33.6-5.3c-10.8-1.9-19.8-4-27.2-6.1V14.2z M96.6,341.9c6.3,1.8,12.2,2.7,17.4,2.9
		c5.3,0.2,10.9,0.3,16.9,0.3c14.1,0,24.2-5.6,30.4-16.7c6.2-11.1,9.3-31.5,9.3-61.1c0-14.1-0.9-25.6-2.6-34.6
		c-1.8-9-4.4-16.1-7.9-21.4c-3.5-5.3-7.8-8.9-13-10.8c-5.1-1.9-11-2.9-17.7-2.9c-5.3,0-10.9,0.4-16.9,1.1c-6,0.7-11.3,1.6-15.9,2.6
		V341.9z"/>
	<path class="st0" d="M302.2,147.9c12.3-3.2,26.9-5.9,43.6-8.2c16.7-2.3,32.7-3.4,47.8-3.4c17.6,0,33.9,1.5,48.9,4.5
		c15,3,28,7.9,39.1,14.8c11.1,6.9,19.8,15.9,26.2,27c6.3,11.1,9.5,24.8,9.5,41v163.4c-6.3,2.1-14,4.4-23,6.9
		c-9,2.5-18.8,4.6-29.3,6.3s-21.5,3.3-32.8,4.5c-11.3,1.2-22.4,1.9-33.3,1.9c-16.6,0-32-1.3-46.3-4s-26.6-7.3-37-14
		c-10.4-6.7-18.5-15.8-24.3-27.2c-5.8-11.4-8.7-25.8-8.7-43.1c0-15.5,3-28.4,9-38.6c6-10.2,13.8-18.4,23.5-24.6
		c9.7-6.2,20.8-10.6,33.3-13.2c12.5-2.6,25.3-4,38.3-4c7.4,0,14.6,0.4,21.7,1.1c7,0.7,13.9,1.6,20.6,2.6v-15.3
		c0-12.3-3.3-20.4-9.8-24.3c-6.5-3.9-17-5.8-31.5-5.8c-13,0-27.1,1.1-42,3.4c-15,2.3-28.3,4.8-39.9,7.7L302.2,147.9z M429.1,290.7
		c-4.2-0.7-8.5-1.2-13-1.6c-4.4-0.3-8.5-0.5-12.4-0.5c-11.3,0-20.4,2.4-27.5,7.1c-7.1,4.8-10.6,13.5-10.6,26.2
		c0,12,3.6,20.2,10.8,24.6c7.2,4.4,15.9,6.6,26.2,6.6c8.8,0,17.6-0.9,26.4-2.6V290.7z"/>
	<path class="st0" d="M792.8,390c-7.4,2.1-16.5,4.1-27.2,6.1c-10.8,1.9-21.9,3.7-33.6,5.3s-23.1,2.8-34.4,3.7
		c-11.3,0.9-21.1,1.3-29.6,1.3c-18.7,0-35.9-2.4-51.5-7.1c-15.7-4.8-29.3-12.5-40.7-23.3c-11.5-10.7-20.4-25.1-27-43.1
		c-6.5-18-9.8-40.2-9.8-66.6c0-23.6,3-43.7,9-60.3c6-16.6,14.4-30,25.4-40.2c10.9-10.2,24.1-17.7,39.6-22.5
		c15.5-4.8,32.8-7.1,51.8-7.1c5.6,0,11.8,0.3,18.5,0.8c6.7,0.5,13.6,1.5,20.6,2.9V14.2h88.8V390z M704.5,201.3
		c-4.6-1.1-9.9-1.9-15.9-2.6c-6-0.7-11.6-1.1-16.9-1.1c-6.7,0-12.6,1-17.7,2.9c-5.1,1.9-9.4,5.6-13,10.8c-3.5,5.3-6.2,12.4-7.9,21.4
		c-1.8,9-2.6,20.5-2.6,34.6c0,14.8,0.7,27.1,2.1,37c1.4,9.9,3.7,17.9,6.9,24.1c3.2,6.2,7.3,10.5,12.4,13c5.1,2.5,11.2,3.7,18.2,3.7
		c6,0,11.6-0.1,16.9-0.3c5.3-0.2,11.1-1.1,17.4-2.9V201.3z"/>
	<path class="st0" d="M846.5,150.6c9-2.5,18.8-4.8,29.6-6.9c10.7-2.1,22-3.9,33.8-5.3c11.8-1.4,23.7-2.1,35.7-2.1
		c19,0,36.1,1.7,51.3,5c15.1,3.4,28.2,8.7,39.1,16.1c10.9,7.4,19.3,17.3,25.1,29.6c5.8,12.3,8.7,27.5,8.7,45.5v167.6h-88.3V235.7
		c0-14.8-3.4-24.8-10.3-30.1c-6.9-5.3-15.9-7.9-27.2-7.9c-4.9,0-10.6,0.4-16.9,1.1c-6.3,0.7-11.5,1.6-15.3,2.6v198.8h-88.3V157.4
		C829.8,155.3,837.5,153,846.5,150.6z"/>
	<path class="st0" d="M1192.5,52.8c0,14.8-4.6,26-13.7,33.6c-9.2,7.6-21.5,11.4-37,11.4c-15.5,0-27.8-3.8-37-11.4
		c-9.2-7.6-13.7-18.8-13.7-33.6s4.6-26,13.7-33.6c9.2-7.6,21.5-11.4,37-11.4c15.5,0,27.8,3.8,37,11.4
		C1187.9,26.8,1192.5,38,1192.5,52.8z M1186.1,142.6v257.4h-88.3V142.6H1186.1z"/>
</g>
</svg>
